<svg xmlns="http://www.w3.org/2000/svg" width="39" height="39" fill="none" viewBox="0 0 39 39">
  <path fill="#4A79A1" d="M38 20c0 10.493-8.507 19-19 19S0 30.493 0 20 8.507 1 19 1s19 8.507 19 19ZM4.752 20c0 7.869 6.38 14.248 14.248 14.248 7.869 0 14.248-6.38 14.248-14.248 0-7.869-6.38-14.248-14.248-14.248-7.869 0-14.248 6.38-14.248 14.248Z"/>
  <mask id="a" width="21" height="21" x="18" y="0" fill="#000" maskUnits="userSpaceOnUse">
    <path fill="#fff" d="M18 0h21v21H18z"/>
    <path d="M38 20A19 19 0 0 0 19 1v4.682A14.319 14.319 0 0 1 33.318 20H38Z"/>
  </mask>
  <path fill="#7BD88D" d="M38 20A19 19 0 0 0 19 1v4.682A14.319 14.319 0 0 1 33.318 20H38Z"/>
  <path stroke="#000" stroke-width="2" d="M38 20A19 19 0 0 0 19 1v4.682A14.319 14.319 0 0 1 33.318 20H38Z" mask="url(#a)"/>
</svg>