<?xml version="1.0" standalone="no"?>
<!DOCTYPE svg PUBLIC "-//W3C//DTD SVG 20010904//EN"
 "http://www.w3.org/TR/2001/REC-SVG-20010904/DTD/svg10.dtd">
<svg version="1.0" xmlns="http://www.w3.org/2000/svg"
 width="512.000000pt" height="512.000000pt" viewBox="0 0 512.000000 512.000000"
 preserveAspectRatio="xMidYMid meet">
<metadata>
Created by potrace 1.14, written by Peter Selinger 2001-2017
</metadata>
<g transform="translate(0.000000,512.000000) scale(0.100000,-0.100000)"
fill="#000000" stroke="none">
<path d="M1106 5105 c6 -16 25 -16 36 0 4 6 8 2 8 -9 0 -13 5 -16 16 -12 9 4
23 1 30 -5 11 -9 14 -8 14 2 0 11 2 11 9 -1 6 -8 7 -18 4 -23 -3 -5 4 -6 17
-2 14 5 20 3 16 -3 -7 -11 12 -11 31 1 7 4 18 -2 27 -14 12 -17 18 -20 29 -11
10 9 16 9 25 0 7 -7 12 -9 12 -4 0 4 6 1 13 -6 7 -7 13 -17 13 -22 -1 -15 46
-28 55 -15 8 13 29 3 29 -14 0 -7 -4 -6 -10 3 -5 8 -10 10 -10 4 0 -18 12 -24
26 -13 10 8 22 7 45 -5 17 -9 35 -13 40 -10 5 3 6 -2 3 -11 -4 -11 -2 -14 9
-9 9 3 20 -2 26 -15 9 -16 16 -18 41 -11 24 7 30 6 30 -6 0 -8 4 -13 9 -10 5
3 11 -1 15 -9 3 -8 17 -15 31 -15 14 0 24 -5 23 -11 -2 -6 5 -13 15 -14 9 -2
17 1 17 6 0 6 6 4 14 -3 8 -7 11 -17 8 -22 -3 -5 5 -7 17 -3 14 3 29 -1 40
-12 9 -9 22 -16 29 -13 6 2 19 -5 28 -16 9 -11 24 -17 34 -15 10 3 21 -1 25
-8 5 -8 4 -10 -3 -5 -8 5 -10 1 -5 -10 6 -16 7 -16 18 0 12 15 13 15 19 0 3
-9 12 -14 19 -11 15 6 38 -18 29 -29 -4 -5 2 -2 13 6 11 8 17 11 13 6 -12 -14
15 -35 30 -24 9 8 11 7 6 -5 -4 -12 2 -20 19 -26 14 -5 28 -14 31 -20 3 -5 24
-12 45 -16 58 -10 42 -31 -27 -38 -124 -13 -267 -115 -360 -257 -77 -118 -142
-328 -142 -462 l0 -58 -150 0 c-130 0 -156 -3 -189 -20 -53 -26 -98 -83 -110
-139 -20 -86 -133 -1135 -125 -1147 5 -7 134 -193 286 -415 152 -222 284 -413
293 -424 l16 -20 -9 20 c-6 11 -57 124 -115 250 -57 127 -154 338 -215 470
-61 132 -114 259 -118 281 -4 27 0 61 10 97 29 99 50 112 495 317 362 168 402
184 462 188 119 8 178 -39 248 -195 53 -117 558 -1219 832 -1813 43 -94 53
-125 53 -170 0 -59 -19 -107 -62 -152 -21 -23 -360 -185 -770 -369 l-63 -29
28 -40 28 -40 757 0 c511 0 766 3 785 11 38 14 81 56 106 104 36 70 33 154
-17 560 -84 672 -246 1984 -246 1992 0 4 7 -5 15 -21 8 -15 13 -32 10 -36 -3
-4 4 -10 15 -13 14 -3 18 -10 14 -21 -4 -9 -3 -16 2 -15 23 4 33 -3 29 -21 -2
-13 2 -20 11 -20 8 0 14 -9 14 -21 0 -11 4 -17 10 -14 6 3 10 0 10 -8 0 -8 10
-22 23 -31 12 -9 17 -14 10 -11 -6 3 -14 1 -17 -4 -4 -5 5 -8 19 -6 19 2 23
-1 15 -10 -7 -8 -4 -17 9 -29 11 -10 25 -31 32 -48 7 -17 23 -42 36 -56 12
-13 20 -28 17 -33 -3 -5 0 -9 5 -9 6 0 11 -6 11 -14 0 -7 7 -19 15 -26 8 -7
13 -15 11 -19 -7 -11 18 -46 33 -46 8 0 16 -6 19 -14 3 -9 0 -11 -8 -6 -9 6
-9 2 1 -16 7 -13 13 -26 13 -29 1 -3 5 -4 9 -2 5 1 6 -2 2 -8 -7 -11 7 -42 18
-41 4 1 8 -2 9 -6 0 -5 8 -14 17 -21 9 -8 11 -11 5 -8 -6 3 -11 -1 -11 -9 0
-8 5 -13 10 -12 5 1 13 -8 18 -21 7 -17 6 -21 -4 -16 -6 4 1 -5 17 -20 24 -23
26 -30 15 -38 -11 -7 -9 -9 7 -5 22 5 26 -6 10 -31 -4 -7 -5 -16 -2 -19 3 -4
6 -1 6 5 0 7 5 12 11 12 5 0 7 -4 4 -10 -3 -6 -1 -10 4 -10 6 0 11 -9 11 -20
0 -11 5 -20 12 -20 6 0 9 -3 5 -6 -3 -4 1 -21 10 -38 16 -30 16 -31 -3 -16
-18 14 -18 14 -1 -6 9 -11 17 -26 17 -32 0 -6 6 -9 14 -6 11 4 17 -5 22 -30 3
-20 11 -36 16 -36 6 0 8 -9 5 -20 -3 -14 0 -20 10 -20 12 0 13 -3 4 -14 -9
-10 -8 -15 4 -20 8 -3 15 -13 15 -21 0 -10 -5 -13 -12 -9 -9 5 -9 3 1 -9 7 -9
17 -14 22 -12 4 3 6 -6 3 -21 -3 -19 -1 -24 8 -18 10 5 11 4 1 -7 -7 -7 -13
-18 -13 -23 0 -6 5 -4 10 4 5 8 10 11 11 5 4 -46 8 -57 22 -72 9 -10 14 -30
13 -45 -2 -20 1 -25 12 -20 12 4 14 0 9 -17 -4 -18 -1 -24 15 -29 19 -5 20 -6
4 -18 -16 -11 -16 -14 6 -35 13 -12 17 -18 9 -14 -11 6 -10 2 2 -15 9 -13 14
-33 11 -45 -4 -15 0 -24 11 -29 11 -4 14 -12 10 -27 -5 -13 -3 -19 3 -15 5 3
12 -1 16 -9 3 -8 0 -15 -7 -15 -7 0 -5 -5 4 -10 11 -7 15 -20 13 -42 -3 -21
-1 -28 5 -19 12 18 24 -3 16 -28 -4 -13 0 -24 12 -31 15 -10 16 -11 1 -6 -12
3 -15 1 -11 -10 3 -7 10 -14 15 -14 6 0 5 -6 -2 -15 -10 -12 -10 -15 4 -15 12
0 14 -7 9 -30 -5 -26 -3 -30 13 -24 16 5 17 4 3 -5 -20 -13 -17 -56 4 -55 9 1
13 -4 10 -12 -3 -8 -9 -11 -14 -8 -5 3 -4 -6 2 -20 7 -14 17 -22 25 -19 10 4
12 0 8 -11 -3 -9 -10 -14 -14 -11 -5 3 -1 -9 8 -27 19 -39 24 -60 11 -52 -16
10 -9 -9 9 -22 9 -7 12 -14 5 -14 -9 0 -11 -27 -3 -37 3 -4 7 -20 9 -34 0 -5
5 -8 10 -5 5 3 7 -8 6 -24 -1 -17 2 -30 9 -30 8 0 8 -3 0 -8 -6 -4 -13 -15
-17 -25 -6 -15 -3 -17 15 -11 17 5 20 3 15 -11 -4 -9 -7 -21 -7 -26 0 -6 -6
-7 -12 -4 -7 4 -5 0 5 -8 11 -9 14 -18 8 -21 -6 -4 -5 -16 4 -33 11 -21 12
-30 2 -42 -8 -10 -8 -13 -1 -8 7 4 15 -1 19 -10 3 -10 1 -19 -5 -21 -7 -3 -7
-9 2 -20 10 -12 10 -14 1 -8 -7 4 -13 2 -13 -3 0 -6 5 -11 10 -11 6 0 10 -8
10 -18 0 -10 6 -24 12 -31 11 -10 9 -11 -6 -5 -17 6 -17 5 -6 -17 16 -29 25
-102 10 -79 -6 9 -10 10 -10 3 0 -6 4 -14 8 -17 5 -3 8 -15 7 -28 -1 -13 5
-32 14 -43 12 -15 12 -17 1 -8 -12 9 -15 7 -15 -12 0 -13 3 -21 6 -19 4 2 9
-7 11 -21 3 -13 2 -22 -2 -20 -4 3 -10 -4 -13 -15 -3 -11 -1 -18 4 -14 12 7
11 -3 -3 -29 -9 -19 -9 -20 3 -10 11 9 14 7 15 -13 1 -13 -2 -21 -7 -18 -11 6
-11 6 0 -34 6 -21 6 -32 0 -32 -6 0 -3 -7 5 -16 19 -18 21 -28 4 -18 -8 5 -9
2 -5 -10 4 -10 7 -22 7 -27 0 -5 32 -9 70 -9 l70 0 0 2560 0 2560 -2010 0
c-1763 0 -2009 -2 -2004 -15z m1231 -589 c34 -6 119 -41 140 -58 9 -8 1 -24
-32 -65 -113 -138 -195 -366 -195 -539 l0 -54 -250 0 -249 0 5 53 c16 164 41
255 107 382 53 101 148 200 234 244 61 30 147 51 188 45 11 -1 35 -5 52 -8z
m322 -250 c67 -112 108 -240 119 -378 l8 -88 -243 0 -242 0 5 53 c21 222 86
386 207 524 l30 34 41 -45 c23 -24 56 -69 75 -100z m101 6 c0 -7 5 -10 10 -7
6 4 9 1 8 -7 -2 -7 5 -12 15 -11 10 0 16 -1 13 -4 -3 -3 13 -19 34 -34 22 -16
40 -33 40 -38 0 -5 10 -11 22 -13 12 -2 27 -12 33 -23 21 -41 27 -47 37 -37 7
7 17 4 31 -9 11 -10 17 -22 14 -26 -4 -3 -7 -1 -7 5 0 7 -8 12 -17 12 -14 0
-13 -3 5 -16 12 -8 26 -13 31 -10 4 3 13 -6 19 -19 7 -14 17 -24 24 -23 7 2
12 -3 10 -10 -1 -8 2 -11 7 -8 12 8 71 -44 71 -62 0 -7 5 -10 10 -7 6 3 10 1
10 -4 0 -6 5 -10 12 -9 7 2 12 -4 13 -12 1 -8 6 -14 13 -12 7 1 12 -3 12 -9 0
-13 25 -39 39 -39 6 0 7 -8 4 -17 -6 -16 -5 -17 12 -3 16 13 18 13 13 0 -4
-13 -40 -15 -230 -18 l-225 -2 -6 88 c-7 108 -38 234 -81 327 -29 63 -31 71
-14 71 10 0 18 -6 18 -14z m84 -624 c8 -14 7 -21 -6 -34 -30 -30 -75 9 -48 42
16 18 39 15 54 -8z m550 0 c8 -14 7 -21 -6 -34 -30 -30 -75 9 -48 42 16 18 39
15 54 -8z m149 -576 c8 -9 20 -29 26 -45 19 -48 -17 -106 -66 -107 -27 0 -28
-2 -7 -41 17 -34 17 -34 -11 -43 -18 -5 -27 7 -68 96 -26 57 -47 106 -47 110
0 3 13 9 29 13 16 3 35 13 42 21 16 20 82 18 102 -4z m-204 -77 c32 -16 41
-33 41 -76 0 -42 -14 -64 -49 -79 -62 -25 -121 14 -121 79 0 32 6 44 31 65 35
30 58 32 98 11z m-299 -75 c14 -34 22 -37 40 -15 7 8 25 15 40 15 32 0 56 -25
85 -89 16 -36 17 -44 4 -52 -25 -16 -34 -9 -56 41 -16 37 -27 50 -43 50 -32 0
-35 -27 -11 -78 22 -44 22 -47 5 -59 -10 -7 -20 -13 -23 -13 -3 0 -28 48 -54
107 -37 82 -45 108 -35 114 23 15 35 10 48 -21z m-89 -31 c19 -10 19 -12 5
-28 -10 -11 -26 -16 -39 -14 -28 6 -58 -24 -38 -36 7 -4 34 -6 60 -3 40 3 52
1 70 -17 48 -48 9 -119 -71 -128 -32 -4 -47 -1 -57 11 -20 23 2 47 37 40 31
-6 69 17 58 35 -5 7 -29 10 -63 9 -47 -2 -58 1 -74 21 -11 13 -19 33 -19 45 1
56 78 94 131 65z m-176 -84 c0 -22 -31 -33 -47 -17 -17 17 -1 44 24 40 15 -2
23 -10 23 -23z m53 -108 c31 -67 32 -72 16 -84 -10 -7 -20 -13 -23 -13 -6 1
-71 140 -71 152 0 5 19 13 40 16 3 1 20 -31 38 -71z m983 44 c16 -16 29 -33
29 -38 0 -5 -26 -20 -57 -34 -41 -17 -53 -27 -42 -31 9 -4 29 0 45 8 15 8 37
14 48 12 19 -3 18 -4 -5 -31 -17 -20 -37 -30 -66 -34 -55 -7 -93 27 -93 84 1
84 83 121 141 64z m-184 -75 c10 -13 27 -42 38 -65 16 -36 17 -44 4 -52 -25
-16 -34 -9 -56 41 -16 37 -27 50 -43 50 -32 0 -35 -27 -11 -78 22 -44 22 -47
5 -59 -10 -7 -20 -13 -23 -13 -6 1 -71 140 -71 152 0 3 13 9 29 13 16 3 35 13
42 21 18 22 65 17 86 -10z m-188 -81 c32 -16 41 -33 41 -76 0 -42 -14 -64 -49
-79 -62 -25 -121 14 -121 79 0 32 6 44 31 65 35 30 58 32 98 11z m-299 -65
c14 -34 22 -37 40 -15 7 8 25 15 40 15 32 0 56 -25 85 -89 16 -36 17 -44 4
-52 -25 -16 -34 -9 -56 41 -16 37 -27 50 -43 50 -32 0 -35 -27 -11 -78 22 -44
22 -47 5 -59 -10 -7 -20 -13 -23 -13 -3 0 -28 48 -54 107 -37 82 -45 108 -35
114 23 15 35 10 48 -21z m-47 -108 c8 -9 20 -29 26 -45 19 -48 -17 -106 -66
-107 -27 0 -28 -2 -7 -41 17 -34 17 -34 -11 -43 -18 -5 -27 7 -68 96 -26 57
-47 106 -47 110 0 3 13 9 29 13 16 3 35 13 42 21 16 20 82 18 102 -4z"/>
<path d="M3459 3031 c-37 -30 -2 -83 44 -65 21 8 29 32 17 54 -14 27 -36 31
-61 11z"/>
<path d="M3266 2945 c-10 -11 -13 -22 -7 -38 10 -28 51 -35 68 -11 17 23 16
29 -3 48 -20 20 -38 20 -58 1z"/>
<path d="M3720 2705 c-7 -9 -10 -18 -7 -21 5 -6 67 23 67 31 0 12 -49 3 -60
-10z"/>
<path d="M3366 2535 c-10 -11 -13 -22 -7 -38 10 -28 51 -35 68 -11 17 23 16
29 -3 48 -20 20 -38 20 -58 1z"/>
<path d="M3009 2371 c-37 -30 -2 -83 44 -65 21 8 29 32 17 54 -14 27 -36 31
-61 11z"/>
<path d="M2201 3232 c-47 -8 -823 -371 -852 -398 -40 -38 -63 -103 -57 -161 5
-48 43 -135 340 -778 69 -148 138 -299 153 -335 16 -36 158 -255 316 -486 157
-232 299 -445 314 -473 16 -28 32 -51 36 -51 5 0 189 83 410 185 425 195 443
206 470 284 24 69 10 109 -193 551 -108 234 -285 619 -393 855 -109 237 -229
497 -267 580 -38 82 -78 159 -89 172 -41 43 -121 67 -188 55z m-261 -301 c27
-21 53 -66 112 -192 43 -90 80 -184 84 -207 9 -59 -9 -115 -51 -155 -48 -46
-339 -177 -398 -179 -46 -1 -110 26 -140 60 -27 29 -165 334 -173 379 -8 55
11 118 49 154 29 28 323 170 373 181 37 8 109 -13 144 -41z"/>
<path d="M1790 2953 c-42 -8 -322 -141 -348 -166 -75 -70 -72 -128 19 -326 39
-86 80 -168 90 -183 23 -32 94 -68 135 -68 45 0 370 152 397 186 31 39 45 83
39 124 -5 40 -135 331 -166 373 -34 47 -104 72 -166 60z m45 -53 c41 -46 -29
-116 -75 -75 -24 22 -26 58 -4 79 21 22 57 20 79 -4z m-302 -97 c-7 -2 -19 -2
-25 0 -7 3 -2 5 12 5 14 0 19 -2 13 -5z m-44 -5 c-2 -2 -20 -16 -39 -33 l-35
-30 29 33 c17 17 34 32 40 32 5 0 7 -1 5 -2z m351 -16 c-19 -9 -45 -32 -57
-51 -13 -19 -23 -28 -23 -21 0 19 75 90 96 90 12 0 7 -6 -16 -18z m-297 -9
c-7 -2 -19 -2 -25 0 -7 3 -2 5 12 5 14 0 19 -2 13 -5z m312 -15 c-11 -6 -27
-16 -35 -22 -9 -6 -5 -1 8 12 13 12 28 22 35 22 7 0 3 -6 -8 -12z m106 -5 c12
-16 12 -17 -1 -7 -8 6 -22 14 -30 17 -13 5 -12 6 1 6 9 1 23 -7 30 -16z m40 0
c13 -16 12 -17 -3 -4 -10 7 -18 15 -18 17 0 8 8 3 21 -13z m-521 3 c0 -2 -8
-10 -17 -17 -16 -13 -17 -12 -4 4 13 16 21 21 21 13z m188 -31 c-3 -3 -9 2
-12 12 -6 14 -5 15 5 6 7 -7 10 -15 7 -18z m-133 -17 c-11 -6 -23 -16 -27 -22
-5 -8 -8 -7 -8 1 0 12 28 32 45 32 6 0 1 -5 -10 -11z m45 -8 c0 -5 -2 -10 -4
-10 -3 0 -8 5 -11 10 -3 6 -1 10 4 10 6 0 11 -4 11 -10z m310 3 c-8 -3 -22
-11 -30 -17 -13 -10 -13 -9 -1 7 7 9 21 17 30 16 13 0 14 -1 1 -6z m-453 -25
c-3 -8 -6 -5 -6 6 -1 11 2 17 5 13 3 -3 4 -12 1 -19z m350 -25 c-3 -10 -5 -4
-5 12 0 17 2 24 5 18 2 -7 2 -21 0 -30z m-110 -15 c-3 -7 -5 -2 -5 12 0 14 2
19 5 13 2 -7 2 -19 0 -25z m330 0 c-3 -7 -5 -2 -5 12 0 14 2 19 5 13 2 -7 2
-19 0 -25z m-558 -28 c0 -9 -4 -8 -9 5 -5 11 -9 27 -9 35 0 9 4 8 9 -5 5 -11
9 -27 9 -35z m132 27 c-10 -9 -11 -8 -5 6 3 10 9 15 12 12 3 -3 0 -11 -7 -18z
m350 -10 c-10 -9 -11 -8 -5 6 3 10 9 15 12 12 3 -3 0 -11 -7 -18z m-313 -43
c-21 -19 -32 -34 -25 -34 8 0 7 -4 -3 -10 -8 -5 -22 -9 -30 -9 -10 0 -8 3 5 9
18 8 18 9 -5 10 -23 2 -22 3 7 11 17 5 42 22 55 38 13 16 25 26 28 24 3 -3
-12 -20 -32 -39z m162 11 c0 -5 -5 -3 -10 5 -5 8 -10 20 -10 25 0 6 5 3 10 -5
5 -8 10 -19 10 -25z m-140 -18 l-34 -32 30 36 c16 20 31 34 33 32 3 -2 -10
-18 -29 -36z m341 10 l-24 -22 19 27 c10 14 21 24 23 22 3 -3 -6 -15 -18 -27z
m-150 -14 c13 -16 12 -17 -3 -4 -10 7 -18 15 -18 17 0 8 8 3 21 -13z m151 -13
c-20 -19 -42 -30 -60 -29 -25 1 -25 2 7 9 18 4 43 17 54 29 12 12 24 21 27 21
3 0 -10 -14 -28 -30z m-497 -10 c3 -6 -1 -7 -9 -4 -18 7 -21 14 -7 14 6 0 13
-4 16 -10z m115 -73 c0 -2 -10 -12 -22 -23 l-23 -19 19 23 c18 21 26 27 26 19z
m93 -4 c-7 -2 -19 -2 -25 0 -7 3 -2 5 12 5 14 0 19 -2 13 -5z m-93 -42 c-5
-11 -15 -23 -21 -27 -6 -3 -3 5 6 20 20 30 30 35 15 7z m209 -11 c11 -24 11
-24 -3 -6 -9 11 -16 24 -16 30 0 12 5 7 19 -24z m-94 -20 c3 -6 -1 -7 -9 -4
-18 7 -21 14 -7 14 6 0 13 -4 16 -10z m-168 -47 c-3 -10 -5 -2 -5 17 0 19 2
27 5 18 2 -10 2 -26 0 -35z m270 -5 c-3 -8 -6 -5 -6 6 -1 11 2 17 5 13 3 -3 4
-12 1 -19z m-106 -21 l-24 -22 19 27 c10 14 21 24 23 22 3 -3 -6 -15 -18 -27z
m-107 -37 c6 -9 1 -5 -11 8 -13 13 -23 28 -23 35 0 7 6 3 12 -8 6 -11 16 -27
22 -35z m177 17 c-10 -9 -11 -8 -5 6 3 10 9 15 12 12 3 -3 0 -11 -7 -18z m12
-22 c-3 -9 -8 -14 -10 -11 -3 3 -2 9 2 15 9 16 15 13 8 -4z m-43 -10 c0 -2
-10 -9 -22 -15 -22 -11 -22 -10 -4 4 21 17 26 19 26 11z m-113 -31 c-3 -3 -12
-4 -19 -1 -8 3 -5 6 6 6 11 1 17 -2 13 -5z"/>
</g>
</svg>
